<?xml version="1.0" encoding="UTF-8"?>
<svg version="1.1" xmlns="http://www.w3.org/2000/svg" width="2000" height="2000">
<path d="M0 0 C660 0 1320 0 2000 0 C2000 660 2000 1320 2000 2000 C1340 2000 680 2000 0 2000 C0 1340 0 680 0 0 Z " fill="#FEFEFE" transform="translate(0,0)"/>
<path d="M0 0 C2.06249124 1.88682164 4.15444408 3.72003318 6.26953125 5.546875 C16.94954183 14.87132661 26.76073499 25.09068901 35.4765625 36.265625 C36.39008245 37.36979845 37.30696056 38.47119922 38.2265625 39.5703125 C46.53594053 49.57693686 53.64160356 60.20951559 60.4765625 71.265625 C60.96012207 72.04421875 61.44368164 72.8228125 61.94189453 73.625 C73.88349604 93.02855561 82.79001707 113.86155235 90.4765625 135.265625 C90.73743652 135.97187012 90.99831055 136.67811523 91.26708984 137.40576172 C96.99314523 152.95640532 100.63694206 169.16928847 104.4765625 185.265625 C104.77723633 186.48934814 104.77723633 186.48934814 105.08398438 187.73779297 C106.40880762 193.32705214 107.19678322 198.96684452 107.9765625 204.65527344 C108.44166863 208.0136667 108.95100854 211.3615575 109.4765625 214.7109375 C114.51532475 247.78462054 114.80854992 280.87279805 114.4765625 314.265625 C115.44263428 313.61335938 116.40870605 312.96109375 117.40405273 312.2890625 C140.93043785 296.46345152 165.43275074 283.92809596 192.4765625 275.265625 C193.18554688 275.03536621 193.89453125 274.80510742 194.625 274.56787109 C216.71316856 267.46735842 239.46097812 263.80059853 262.4765625 261.265625 C263.42644043 261.15959961 264.37631836 261.05357422 265.35498047 260.94433594 C320.20015348 255.79654678 377.1630995 262.34947843 431.13671875 272.2109375 C431.95245361 272.35917969 432.76818848 272.50742187 433.60864258 272.66015625 C435.75350365 273.11297446 437.87946071 273.65701362 439.9909668 274.24609375 C456.51844871 278.63660532 473.65147184 277.94183991 490.62121582 278.00384521 C494.89929157 278.02366348 499.17715055 278.06560209 503.45507812 278.10546875 C511.79551504 278.18004016 520.13586529 278.23076879 528.4765625 278.265625 C528.48594817 278.96427044 528.49533384 279.66291588 528.50500393 280.38273239 C528.7360758 297.56982566 528.9700486 314.75687714 529.20705318 331.94388962 C529.32161143 340.25619494 529.43527094 348.56851054 529.54663086 356.88085938 C529.64396193 364.14585328 529.74316612 371.41081907 529.84440809 378.67575955 C529.89770205 382.50433112 529.95020283 386.33290892 530.0004406 390.16152191 C530.23720864 408.15545167 530.5925398 426.14063507 531.13957119 444.1280632 C531.49002142 455.75935874 531.59887982 467.37946319 531.5390625 479.015625 C531.53400511 480.82682159 531.52945015 482.63801965 531.52539062 484.44921875 C531.51567223 488.72142584 531.49606044 492.99340908 531.4765625 497.265625 C525.5365625 497.265625 519.5965625 497.265625 513.4765625 497.265625 C513.25613281 494.23568359 513.25613281 494.23568359 513.03125 491.14453125 C509.14663196 442.00155541 492.40588826 397.47893999 454.2421875 364.7421875 C404.98879722 323.55240537 340.45080121 309.76572386 277.4140625 315.015625 C223.21213044 320.12742062 173.58680508 346.72020404 138.4765625 388.265625 C104.86402349 429.42535032 93.19217593 476.9066575 91.9296875 529.04296875 C91.88512711 530.8170216 91.84036941 532.59106951 91.79541016 534.3651123 C91.68685589 538.66522966 91.58096107 542.96540483 91.4765625 547.265625 C92.41898345 547.26486556 93.36140441 547.26410612 94.33238357 547.26332366 C150.17240126 547.21850251 206.01241729 547.18425802 261.85244935 547.16349434 C268.55536015 547.16099968 275.2582709 547.15840657 281.96118164 547.15576172 C282.62819949 547.1555002 283.29521735 547.15523868 283.98244786 547.15496924 C305.59985426 547.14644755 327.21725019 547.13142567 348.83465025 547.11303056 C371.68044398 547.09362548 394.52623312 547.08163215 417.37203509 547.07744801 C431.05769527 547.07470208 444.74332542 547.06602532 458.42897636 547.04979207 C467.81030318 547.03923039 477.19161445 547.03602253 486.57294678 547.03862225 C491.98761982 547.0399048 497.40224034 547.03792131 502.81690407 547.02721405 C507.77468592 547.01748179 512.73237993 547.01699 517.69016583 547.02382721 C519.48304802 547.02467226 521.27593571 547.02213503 523.06880712 547.01585864 C539.58682854 546.96139887 539.58682854 546.96139887 547.4765625 549.265625 C548.37246094 549.52601563 549.26835938 549.78640625 550.19140625 550.0546875 C562.32162272 554.61684273 570.20753783 563.19874212 576.4765625 574.265625 C577.82263748 577.56240536 578.75843641 580.78399584 579.4765625 584.265625 C579.64741175 584.87683008 579.81826099 585.48803516 579.99428749 586.11776161 C580.50552152 588.39459711 580.61368518 590.42043886 580.63046265 592.75253296 C580.63906311 593.64652802 580.64766357 594.54052307 580.65652466 595.46160889 C580.66078461 596.43511292 580.66504456 597.40861694 580.66943359 598.41162109 C580.67761108 599.44310272 580.68578857 600.47458435 580.69421387 601.537323 C580.71904312 604.95456367 580.73558282 608.37176268 580.75 611.7890625 C580.75532368 612.95943684 580.76064735 614.12981117 580.76613235 615.3356514 C580.79286055 621.53740025 580.81223158 627.73912906 580.82666016 633.94091797 C580.83996677 639.05633555 580.86776008 644.17135117 580.90869141 649.28662109 C580.95822013 655.47695215 580.98280685 661.66692024 580.98988724 667.85744095 C580.99656837 670.20716945 581.01170761 672.55689087 581.03577805 674.90650558 C581.21597137 693.56936721 579.60585376 708.08887103 566.484375 722.4453125 C557.83121684 730.84489826 547.03425742 735.36946956 535.00621223 735.4042902 C533.93879708 735.40976464 532.87138193 735.41523909 531.77162087 735.42087942 C530.02940044 735.42234658 530.02940044 735.42234658 528.25198364 735.42384338 C527.00954073 735.42878136 525.76709781 735.43371934 524.48700511 735.43880695 C521.04587561 735.45149794 517.60478639 735.4597959 514.16364288 735.46623361 C510.45000051 735.47425347 506.73637853 735.48794577 503.02275085 735.50094604 C496.59111292 735.52268632 490.15947291 735.54083975 483.72781754 735.55655098 C474.42874536 735.57927192 465.12969579 735.60741166 455.8306428 735.63687026 C440.74322498 735.6845189 425.65579791 735.72779047 410.56835938 735.76831055 C395.91307862 735.80767936 381.25780607 735.8491089 366.60253906 735.89331055 C365.69905574 735.89603482 364.79557242 735.89875909 363.86471082 735.90156592 C359.33216094 735.91524562 354.79961117 735.92896585 350.26706147 735.94270623 C312.67024555 736.05662815 275.07341209 736.16344697 237.4765625 736.265625 C238.44019211 737.02207306 239.40382172 737.77852112 240.39665222 738.55789185 C241.67223878 739.5595808 242.94781717 740.56128016 244.22338867 741.56298828 C244.85718193 742.06047073 245.49097519 742.55795319 246.1439743 743.07051086 C250.38205369 746.3991182 254.59644332 749.75493752 258.7890625 753.140625 C264.10140562 757.41312315 269.48373938 761.58186452 274.9140625 765.703125 C281.2648574 770.52574635 287.4921154 775.47675059 293.66333008 780.52661133 C299.63157716 785.40797734 305.68224878 790.17739597 311.75878906 794.92285156 C314.66927858 797.19796418 317.57254957 799.48225543 320.4765625 801.765625 C323.96307351 804.50617126 327.45034408 807.24572132 330.94140625 809.98046875 C336.29351348 814.17562842 341.63298575 818.3839108 346.93164062 822.64648438 C352.86327959 827.41799206 358.85000269 832.10089978 364.9140625 836.703125 C371.2648574 841.52574635 377.4921154 846.47675059 383.66333008 851.52661133 C389.63157716 856.40797734 395.68224878 861.17739597 401.75878906 865.92285156 C404.66927858 868.19796418 407.57254957 870.48225543 410.4765625 872.765625 C413.96307351 875.50617126 417.45034408 878.24572132 420.94140625 880.98046875 C427.61424311 886.21053007 434.25410486 891.479128 440.86865234 896.78271484 C446.7955089 901.53064733 452.76449842 906.22369215 458.74267578 910.90673828 C461.65623077 913.19015803 464.56620443 915.47813303 467.4765625 917.765625 C468.64321223 918.68231323 469.80987889 919.5989799 470.9765625 920.515625 C473.30989583 922.34895833 475.64322917 924.18229167 477.9765625 926.015625 C478.5540625 926.46929443 479.1315625 926.92296387 479.7265625 927.39038086 C480.89354553 928.3074589 482.06021216 929.2249397 483.2265625 930.14282227 C486.13593253 932.43159704 489.05040431 934.71318602 491.9765625 936.98046875 C498.61425513 942.13622777 505.0940365 947.42734501 511.4440918 952.93432617 C514.8353407 955.87347187 518.27467686 958.72322795 521.7890625 961.515625 C527.56174074 966.19200827 532.91715419 971.29037052 538.28833008 976.41894531 C541.65225847 979.62811479 545.03742782 982.78310021 548.5546875 985.82421875 C552.3732734 989.13568895 555.98019044 992.61575397 559.5390625 996.203125 C560.15120605 996.81792725 560.76334961 997.43272949 561.39404297 998.06616211 C564.94548272 1001.65506031 568.38276238 1005.2960246 571.64453125 1009.15234375 C573.65137537 1011.46727481 575.7313355 1013.70130499 577.82373047 1015.9387207 C582.54724428 1020.99362012 587.10134002 1026.09521526 591.359375 1031.5546875 C592.98055137 1033.63051112 594.619811 1035.68333659 596.28125 1037.7265625 C610.72575061 1055.51926484 623.89896899 1074.4803531 635.4765625 1094.265625 C635.96850098 1095.10351562 636.46043945 1095.94140625 636.96728516 1096.8046875 C659.00277762 1134.59097041 675.34738664 1174.94896806 684.88305664 1217.66162109 C685.30249407 1219.50190068 685.74106383 1221.33786923 686.19311523 1223.17041016 C688.20560569 1231.44805546 689.56236327 1239.72741855 690.72924805 1248.15625 C691.03595531 1250.368216 691.35221838 1252.57865209 691.66992188 1254.7890625 C692.30831561 1259.27674204 692.89896777 1263.7697656 693.4765625 1268.265625 C693.57405792 1269.00127686 693.67155334 1269.73692871 693.77200317 1270.49487305 C695.59499444 1284.50016083 695.83351453 1298.40498632 695.7890625 1312.515625 C695.78790436 1313.65537781 695.78674622 1314.79513062 695.78555298 1315.96942139 C695.74892233 1334.23707906 695.04255092 1352.16164444 692.4765625 1370.265625 C692.34846191 1371.1726416 692.22036133 1372.0796582 692.08837891 1373.01416016 C691.34042206 1378.12470973 690.43204531 1383.19026469 689.4765625 1388.265625 C689.29867188 1389.43609375 689.12078125 1390.6065625 688.9375 1391.8125 C679.10613839 1452.8980268 647.20589299 1510.80448861 607.4765625 1557.390625 C607.03892578 1557.90391357 606.60128906 1558.41720215 606.15039062 1558.94604492 C597.53503216 1568.92879798 588.4647676 1578.46409193 579.14257812 1587.78491211 C577.47235155 1589.4573415 575.81033871 1591.13766169 574.1484375 1592.81835938 C567.58036408 1599.42078382 560.80389149 1605.49837897 553.4765625 1611.265625 C552.20985724 1612.30178189 550.94524687 1613.34050989 549.68359375 1614.3828125 C498.80490796 1655.90070112 435.85664815 1681.75807346 371.4765625 1693.265625 C370.61047363 1693.42627441 369.74438477 1693.58692383 368.85205078 1693.75244141 C337.77338019 1699.49201967 307.21896789 1701.91470299 275.66412354 1701.65686035 C272.32059409 1701.63514753 268.97722516 1701.63601497 265.63363743 1701.63687801 C215.67149188 1701.63369869 165.14221468 1697.3244102 117.4765625 1681.265625 C115.94582966 1680.78091584 114.41452666 1680.29800539 112.8828125 1679.81640625 C48.77171796 1659.39987495 -13.32504617 1622.57144995 -57.5234375 1571.265625 C-58.04437988 1570.66766113 -58.56532227 1570.06969727 -59.10205078 1569.45361328 C-92.43172699 1530.97537152 -115.57928879 1484.0391585 -129.5234375 1435.265625 C-129.88566406 1434.09644531 -130.24789062 1432.92726563 -130.62109375 1431.72265625 C-147.70815872 1375.26408754 -149.90944117 1313.61981241 -136.5234375 1256.265625 C-136.32492187 1255.40807617 -136.12640625 1254.55052734 -135.921875 1253.66699219 C-122.75582259 1197.42600496 -100.60036717 1145.99559184 -66.5234375 1099.265625 C-66.02312012 1098.57839355 -65.52280273 1097.89116211 -65.00732422 1097.18310547 C-58.99345716 1088.9577746 -52.75808305 1080.99876335 -46.10546875 1073.28125 C-43.69090226 1070.46121168 -41.35000952 1067.59584332 -39.0234375 1064.703125 C-34.10918357 1058.6561846 -28.83869633 1052.95841623 -23.5234375 1047.265625 C-18.11505307 1050.83442289 -12.77363969 1054.46760639 -7.5234375 1058.265625 C-8.93988171 1062.41753026 -10.94289812 1065.25592023 -13.7109375 1068.640625 C-25.43143369 1083.41443363 -35.28478592 1099.84869054 -44.5234375 1116.265625 C-45.00989746 1117.1210791 -45.49635742 1117.9765332 -45.99755859 1118.85791016 C-74.39517134 1169.01553615 -92.12139833 1223.80714796 -97.5234375 1281.265625 C-97.62060059 1282.17352783 -97.71776367 1283.08143066 -97.81787109 1284.0168457 C-98.84147518 1294.80998081 -98.67367505 1305.64332746 -98.65380859 1316.47436523 C-98.64847688 1319.92761684 -98.65376362 1323.38073686 -98.66015625 1326.83398438 C-98.66688627 1343.48247446 -98.65173764 1360.02546917 -95.6484375 1376.453125 C-95.46700195 1377.47937988 -95.28556641 1378.50563477 -95.09863281 1379.56298828 C-94.73973787 1381.57756406 -94.37606056 1383.5912957 -94.00683594 1385.60400391 C-93.60710345 1387.8049552 -93.23274021 1390.00682428 -92.875 1392.21484375 C-85.63681907 1433.43487411 -66.27488783 1474.45040878 -40.5234375 1507.265625 C-39.70931645 1508.34513355 -38.89688199 1509.42591564 -38.0859375 1510.5078125 C-27.20577292 1524.87415458 -14.48277296 1539.35511881 -0.3359375 1550.578125 C3.13063697 1553.35327888 6.52824838 1556.1748593 9.86547852 1559.10424805 C18.84821144 1566.92855822 28.61983825 1573.59933589 38.4765625 1580.265625 C39.20391602 1580.76094727 39.93126953 1581.25626953 40.68066406 1581.76660156 C69.24328876 1601.12497062 101.0535119 1616.49769468 134.4765625 1625.265625 C135.37793945 1625.50522949 136.27931641 1625.74483398 137.20800781 1625.99169922 C161.38360274 1632.33950361 185.98794008 1636.41036683 211.015625 1636.43359375 C212.29472748 1636.43692215 213.57382996 1636.44025055 214.89169312 1636.44367981 C217.59284303 1636.449629 220.2939612 1636.45152457 222.99511719 1636.45092773 C225.70775126 1636.45084724 228.42021369 1636.4576727 231.1328125 1636.47143555 C271.08132419 1636.67097115 311.35471015 1632.98345458 349.4765625 1620.265625 C350.44658203 1619.94722656 351.41660156 1619.62882812 352.41601562 1619.30078125 C366.45129918 1614.67040976 380.15345619 1609.67567712 393.4765625 1603.265625 C394.13205078 1602.95302734 394.78753906 1602.64042969 395.46289062 1602.31835938 C423.89011623 1588.68345375 449.78682648 1572.09494331 473.4765625 1551.265625 C474.44851563 1550.41742187 475.42046875 1549.56921875 476.421875 1548.6953125 C500.16942681 1527.48083288 518.60590735 1502.30404567 533.4765625 1474.265625 C534.01410156 1473.25846436 534.01410156 1473.25846436 534.5625 1472.23095703 C540.38239788 1461.24480582 545.11195172 1449.8996577 549.4765625 1438.265625 C549.98751465 1436.9055835 549.98751465 1436.9055835 550.50878906 1435.51806641 C558.11388759 1415.03867361 563.12278872 1394.4035973 566.7265625 1372.890625 C566.8516217 1372.14688629 566.97668091 1371.40314758 567.10552979 1370.63687134 C570.00165024 1353.24259781 571.89321842 1336.10245204 571.8515625 1318.453125 C571.85124527 1317.19511078 571.85124527 1317.19511078 571.85092163 1315.91168213 C571.79356749 1292.90424598 568.73343105 1270.42869185 562.4765625 1248.265625 C562.17121582 1247.1837793 561.86586914 1246.10193359 561.55126953 1244.98730469 C552.03631104 1211.85773976 538.66426226 1178.69057633 520.4765625 1149.265625 C519.94417969 1148.38519531 519.41179687 1147.50476562 518.86328125 1146.59765625 C500.01989346 1116.1514187 475.84700416 1086.46707499 448.6328125 1063.140625 C446.0766386 1060.91786509 443.59277809 1058.62340228 441.1015625 1056.328125 C436.96066885 1052.55543667 432.73177432 1048.97954143 428.328125 1045.51953125 C425.43919683 1043.23609076 422.58567482 1040.91366886 419.73486328 1038.58300781 C413.15036624 1033.20176124 406.50033529 1027.93804398 399.73828125 1022.78125 C396.189258 1020.06101475 392.70844482 1017.25845458 389.2265625 1014.453125 C383.89366331 1010.15890495 378.49376159 1005.96636539 373.0390625 1001.828125 C366.75186386 997.05575095 360.59813864 992.14733985 354.49633789 987.14086914 C349.73143564 983.246461 344.88112745 979.48216926 339.9765625 975.765625 C333.64439225 970.96569967 327.43861389 966.03626522 321.28955078 961.00439453 C315.32132658 956.12318171 309.27078654 951.35378399 303.19433594 946.60839844 C300.28384622 944.33328567 297.38061754 942.0489413 294.4765625 939.765625 C293.30992971 938.84891522 292.14326306 937.93224852 290.9765625 937.015625 C283.9765625 931.515625 276.9765625 926.015625 269.9765625 920.515625 C269.39914307 920.06195557 268.82172363 919.60828613 268.22680664 919.14086914 C267.0592584 918.22347491 265.89177801 917.30599433 264.72436523 916.38842773 C261.8217346 914.10718255 258.91796976 911.82741286 256.01171875 909.55078125 C250.65961152 905.35562158 245.32013925 901.1473392 240.02148438 896.88476562 C234.08984899 892.11326082 228.10321255 887.43022772 222.0390625 882.828125 C215.75194467 878.05564072 209.59814279 873.14734326 203.49633789 868.14086914 C198.73143564 864.246461 193.88112745 860.48216926 188.9765625 856.765625 C182.64439225 851.96569967 176.43861389 847.03626522 170.28955078 842.00439453 C164.32132658 837.12318171 158.27078654 832.35378399 152.19433594 827.60839844 C149.28384622 825.33328567 146.38061754 823.0489413 143.4765625 820.765625 C142.30992971 819.84891522 141.14326306 818.93224852 139.9765625 818.015625 C132.9765625 812.515625 125.9765625 807.015625 118.9765625 801.515625 C118.1103125 800.83512085 118.1103125 800.83512085 117.2265625 800.14086914 C116.05957947 799.2237911 114.89291284 798.3063103 113.7265625 797.38842773 C110.81719247 795.09965296 107.90272069 792.81806398 104.9765625 790.55078125 C87.3078946 776.83149328 69.45120916 762.11037344 54.7890625 745.140625 C54.24894531 744.51929688 53.70882812 743.89796875 53.15234375 743.2578125 C51.4765625 741.265625 51.4765625 741.265625 49.98726344 738.68054181 C46.18895742 735.02714251 42.71988276 735.57301641 37.62956619 735.63476849 C36.61361498 735.62731089 35.59766376 735.6198533 34.55092615 735.61216971 C31.11865007 735.5931365 27.68746464 735.60996542 24.25518799 735.62638855 C21.78097399 735.62008214 19.30676476 735.61158255 16.83256507 735.60106832 C11.43888968 735.58320183 6.04553803 735.58092928 0.65186882 735.59222221 C-7.36828318 735.60893062 -15.38821378 735.59708434 -23.40835439 735.57930851 C-36.89849402 735.55022163 -50.38855053 735.54440945 -63.87871552 735.55177879 C-77.23915847 735.55900152 -90.59953345 735.55593055 -103.95996857 735.53905678 C-105.20518871 735.53749281 -105.20518871 735.53749281 -106.47556482 735.53589724 C-110.69131608 735.53054862 -114.90706709 735.52501556 -119.12281802 735.51941148 C-148.99708177 735.48003102 -178.87131779 735.46381339 -208.74560547 735.46118164 C-237.77133757 735.45857172 -266.79703404 735.4454923 -295.82275391 735.41821289 C-296.71716729 735.41737647 -297.61158068 735.41654004 -298.5330975 735.41567827 C-307.51501577 735.40726711 -316.49693382 735.39864282 -325.47885173 735.38986237 C-343.77669189 735.3719798 -362.07453324 735.35551991 -380.37237549 735.33992004 C-381.21371419 735.339201 -382.0550529 735.33848197 -382.92188672 735.33774114 C-439.12239171 735.28987321 -495.32291456 735.27527485 -551.5234375 735.265625 C-551.48736505 776.00544315 -551.43030982 816.74518325 -551.34551655 857.4849304 C-551.33550032 862.30587126 -551.32565599 867.12681247 -551.31591797 871.94775391 C-551.3139766 872.90742703 -551.31203522 873.86710015 -551.31003502 874.85585427 C-551.27910082 890.34960099 -551.26205842 905.84333293 -551.25024328 921.33710468 C-551.23778708 937.26139717 -551.21018561 953.18561273 -551.16882443 969.10985661 C-551.14381627 978.91842195 -551.13031088 988.72685952 -551.13200793 998.53545719 C-551.13203792 1005.28184283 -551.11722106 1012.02809931 -551.09127322 1018.77443451 C-551.07677369 1022.65384907 -551.06829578 1026.53299891 -551.07763481 1030.41243553 C-551.15363147 1066.27576045 -546.62023462 1097.30465682 -522.5234375 1125.265625 C-521.98332031 1125.95140625 -521.44320313 1126.6371875 -520.88671875 1127.34375 C-508.59469491 1142.57719012 -489.7263799 1152.90383002 -471.5234375 1159.265625 C-470.63785156 1159.58273437 -469.75226563 1159.89984375 -468.83984375 1160.2265625 C-451.41981794 1165.71618062 -431.55567374 1164.75119183 -413.5234375 1165.265625 C-413.5234375 1171.205625 -413.5234375 1177.145625 -413.5234375 1183.265625 C-542.5534375 1183.265625 -671.5834375 1183.265625 -804.5234375 1183.265625 C-804.5234375 1177.325625 -804.5234375 1171.385625 -804.5234375 1165.265625 C-802.86699219 1165.21664063 -801.21054687 1165.16765625 -799.50390625 1165.1171875 C-762.4022277 1163.93040072 -732.00234993 1158.85610681 -703.5234375 1133.265625 C-702.65203125 1132.49476562 -701.780625 1131.72390625 -700.8828125 1130.9296875 C-681.29175573 1112.5031341 -669.08063928 1084.23653525 -668.23928261 1057.5610199 C-668.0907437 1049.90554439 -668.08322654 1042.25052836 -668.09069765 1034.59393144 C-668.09132711 1030.5682399 -668.07464945 1026.54261296 -668.06018066 1022.51695251 C-668.03749324 1015.55945847 -668.02552668 1008.60201417 -668.02105141 1001.64448547 C-668.01456527 991.58534893 -667.99158485 981.52630193 -667.96470811 971.46720165 C-667.92153393 955.14302338 -667.89151381 938.81884889 -667.86987305 922.49462891 C-667.84883518 906.6466282 -667.82153568 890.79865846 -667.78588867 874.95068359 C-667.78368985 873.97216562 -667.78149102 872.99364766 -667.77922557 871.98547763 C-667.76815521 867.0760481 -667.75696254 862.16661886 -667.74570906 857.25718975 C-667.65265674 816.59336204 -667.58099739 775.92951746 -667.5234375 735.265625 C-668.98477222 735.27115576 -668.98477222 735.27115576 -670.47562885 735.27679825 C-694.2048581 735.36568385 -717.9340657 735.43136947 -741.6634264 735.47287369 C-753.13887774 735.49347944 -764.61421896 735.52156213 -776.08959961 735.56738281 C-786.09412372 735.60731131 -796.09856804 735.63307225 -806.10316962 735.64197898 C-811.39820877 735.64718352 -816.69301975 735.65937479 -821.98798561 735.68854523 C-826.97760069 735.71580928 -831.9668948 735.72404782 -836.9565773 735.71805573 C-838.78222717 735.71915106 -840.60788841 735.72703916 -842.43347359 735.7424469 C-857.45626015 735.86295793 -870.46845 733.61296595 -881.97265625 723.0078125 C-892.07672962 712.35260785 -895.82053951 701.52616806 -895.82983398 687.10473633 C-895.8381575 686.00132904 -895.84648102 684.89792175 -895.85505676 683.76107788 C-895.87909708 680.12323446 -895.8879223 676.48557062 -895.89453125 672.84765625 C-895.90350302 670.30807951 -895.91262496 667.7685033 -895.92189026 665.22892761 C-895.93836727 659.90707791 -895.94611058 654.585295 -895.94897461 649.26342773 C-895.95260355 643.13929219 -895.98246209 637.01565971 -896.02437919 630.89167768 C-896.06345714 624.97195175 -896.07457116 619.05237454 -896.07570076 613.13251305 C-896.07989038 610.62763431 -896.09227366 608.12275465 -896.11321831 605.61795998 C-896.14026974 602.10269838 -896.13526478 598.5888011 -896.12280273 595.07348633 C-896.13763702 594.05229202 -896.15247131 593.03109772 -896.16775513 591.97895813 C-896.03886534 579.12108811 -890.20391463 569.13270763 -881.42578125 560.109375 C-868.35941589 547.75739646 -854.34048889 546.96556225 -837.24389648 547.03857422 C-835.39037584 547.03913896 -833.53685474 547.03882054 -831.68333435 547.03768921 C-826.67159088 547.03711716 -821.65994382 547.04884759 -816.64822268 547.06283712 C-811.40318721 547.07536908 -806.15814934 547.07651693 -800.9131012 547.07888794 C-790.98982565 547.08509547 -781.06659435 547.10149645 -771.14333826 547.12158692 C-759.8422625 547.14396856 -748.54118458 547.15494504 -737.24009216 547.16497779 C-714.00118277 547.18586332 -690.76231262 547.22102515 -667.5234375 547.265625 C-667.56750443 502.43942705 -667.61515673 457.61323347 -667.68241882 412.7870636 C-667.68341439 412.12288083 -667.68440996 411.45869805 -667.68543569 410.77438853 C-667.70709776 396.33747543 -667.72942071 381.90056343 -667.75242378 367.46365241 C-667.76370161 360.38307641 -667.7748335 353.30250018 -667.78588867 346.22192383 C-667.78699124 345.51734766 -667.7880938 344.81277148 -667.78922978 344.08684452 C-667.82485371 321.27829992 -667.85085435 298.46975678 -667.87182719 275.6611944 C-667.89405704 251.54273828 -667.92733158 227.42431918 -667.97213906 203.3058942 C-667.99860827 188.86788721 -668.01633848 174.42992438 -668.02278354 159.99189434 C-668.02805189 150.08251445 -668.0443174 140.17319005 -668.06910316 130.26383992 C-668.08306854 124.55223255 -668.09230757 118.84072439 -668.08844566 113.12909889 C-668.08500971 107.88823898 -668.09554691 102.64759017 -668.11667302 97.40677343 C-668.121897 95.52220207 -668.1222227 93.63760854 -668.11683313 91.75303765 C-668.05316474 66.9406498 -671.6034897 41.20769027 -688.65625 21.84375 C-690.24722646 20.28497955 -691.88010593 18.76909856 -693.5234375 17.265625 C-693.5234375 16.605625 -693.5234375 15.945625 -693.5234375 15.265625 C-694.09578125 15.01039063 -694.668125 14.75515625 -695.2578125 14.4921875 C-697.76647753 13.13404815 -699.63010599 11.5216607 -701.7734375 9.640625 C-715.64463747 -1.54975741 -734.97370622 -8.85147098 -752.80859375 -8.8671875 C-753.85399574 -8.86862259 -753.85399574 -8.86862259 -754.92051697 -8.87008667 C-756.39387096 -8.87076516 -757.86722798 -8.86893403 -759.34057617 -8.86474609 C-761.55459638 -8.85944997 -763.76840841 -8.86467274 -765.98242188 -8.87109375 C-773.36488337 -8.87425596 -780.6642868 -8.66043833 -788.01928711 -7.95703125 C-791.11076236 -7.68215308 -794.17100852 -7.63494132 -797.2734375 -7.671875 C-798.27890625 -7.68089844 -799.284375 -7.68992187 -800.3203125 -7.69921875 C-801.04734375 -7.71082031 -801.774375 -7.72242188 -802.5234375 -7.734375 C-804.71165376 -14.00726162 -805.57009901 -19.08511038 -805.5234375 -25.734375 C-804.65823738 -25.79923347 -804.65823738 -25.79923347 -803.77555847 -25.86540222 C-786.73945738 -27.16360235 -769.79673603 -28.99938534 -752.8359375 -31.046875 C-750.22705078 -31.35904948 -747.61816406 -31.67122396 -745.00927734 -31.98339844 C-725.1522774 -34.37052051 -705.32733648 -36.94295305 -685.5234375 -39.734375 C-683.35161411 -40.03552865 -681.17974295 -40.3363382 -679.0078125 -40.63671875 C-677.13793654 -40.89783457 -675.26813676 -41.15949694 -673.3984375 -41.421875 C-672.62902832 -41.52918945 -671.85961914 -41.63650391 -671.06689453 -41.74707031 C-667.13544874 -42.30983953 -663.23533315 -42.9654647 -659.33203125 -43.69921875 C-652.82167635 -44.90197349 -646.27345692 -45.74654392 -639.7109375 -46.609375 C-629.78957959 -47.94165179 -619.93312411 -49.43836478 -610.10424805 -51.33935547 C-605.52778652 -52.21910692 -600.95610075 -52.97511818 -596.33984375 -53.6171875 C-585.99799777 -55.06159889 -575.70206358 -56.79205629 -565.3984375 -58.484375 C-563.2011797 -58.8443674 -561.00391397 -59.20431146 -558.80664062 -59.56420898 C-534.19476244 -63.59867057 -509.59338117 -67.68836717 -485.01135254 -71.90097046 C-465.04307254 -75.32232755 -445.07666482 -78.72175478 -425.01000977 -81.52270508 C-418.99323714 -82.36656514 -412.987921 -83.27322475 -406.9839325 -84.20365906 C-320.82664128 -97.54054479 -230.2588627 -102.42211662 0 0 Z " fill="#4EA674" transform="translate(1097.5234375,225.734375)"/>
<path d="M0 0 C30.04937647 -0.56390078 59.48107665 1.23754996 89.03808594 7.08251953 C89.87678223 7.24413574 90.71547852 7.40575195 91.57958984 7.57226562 C135.61377699 16.29233618 177.61822029 36.38079285 212.03808594 65.08251953 C213.45347656 66.22140625 213.45347656 66.22140625 214.89746094 67.38330078 C228.97318842 78.83458905 242.11658739 91.74005317 252.82324219 106.41894531 C254.04379197 108.09033322 255.28911403 109.74089456 256.53808594 111.39111328 C278.46893441 140.76202135 292.88478946 175.79042797 302.03808594 211.08251953 C302.22709473 211.79891602 302.41610352 212.5153125 302.61083984 213.25341797 C308.14530273 234.46135975 310.87387217 256.3085868 313.03808594 278.08251953 C313.1206665 278.85151581 313.20324707 279.62051208 313.28833008 280.41281128 C314.94866921 296.00016021 315.35018167 311.46428748 315.29882812 327.1340332 C315.28810754 331.01220357 315.29879292 334.88990994 315.31152344 338.76806641 C315.32595845 360.93347031 313.75475076 382.63288319 310.28808594 404.52001953 C310.15936096 405.34782928 310.03063599 406.17563904 309.89801025 407.02853394 C307.67495159 421.2530109 304.79906198 435.17691839 301.03808594 449.08251953 C300.56822266 450.91943359 300.56822266 450.91943359 300.08886719 452.79345703 C299.16262804 456.25532825 298.1337742 459.67158044 297.03808594 463.08251953 C296.75658691 463.96359375 296.47508789 464.84466797 296.18505859 465.75244141 C283.33982978 505.45705013 264.76834037 543.17819962 236.60654831 574.33073449 C235.44289201 575.63039952 234.32541527 576.9717235 233.23442459 578.33295989 C229.21794919 582.95123706 226.27280675 585.62545981 220.05194092 586.22067642 C217.7337651 586.27244689 215.41417005 586.27530579 213.09570312 586.23883057 C211.81212795 586.25428161 210.52855278 586.26973266 209.20608139 586.28565192 C205.6630114 586.32692254 202.12207479 586.31247126 198.57892799 586.28835964 C194.75047653 586.27206452 190.9224463 586.30763524 187.09411621 586.33633423 C179.60234961 586.38399619 172.11135759 586.38286562 164.61949348 586.3636705 C158.52941677 586.34879613 152.43956452 586.35079308 146.3494873 586.36473846 C145.48184179 586.36669501 144.61419628 586.36865155 143.72025847 586.37066738 C141.9575058 586.37468961 140.19475319 586.37873895 138.43200064 586.38281509 C121.91291291 586.41880076 105.39425992 586.39812636 88.87520361 586.35904357 C74.70912477 586.32700711 60.54391173 586.34804721 46.37792969 586.40673828 C29.91688538 586.47493662 13.45638424 586.50684135 -3.0048027 586.48352599 C-4.76097353 586.4811624 -6.51714444 586.47885881 -8.27331543 586.47661591 C-9.13732476 586.47550885 -10.00133408 586.47440179 -10.89152551 586.47326119 C-16.97248974 586.46807391 -23.053037 586.48911343 -29.13391113 586.52063751 C-36.54748199 586.55851233 -43.95982092 586.55746356 -51.37333488 586.50665346 C-55.15440823 586.48175902 -58.93332338 586.47433188 -62.71430969 586.51490402 C-66.81782978 586.55836173 -70.91609082 586.51622832 -75.01953125 586.46588135 C-76.20893436 586.49178353 -77.39833748 586.5176857 -78.62378311 586.5443728 C-83.73285802 586.4175792 -86.7595195 586.15188137 -90.66188812 582.68127012 C-92.96280818 579.90613061 -94.99772431 577.10288915 -96.96191406 574.08251953 C-97.73508532 572.97924674 -97.73508532 572.97924674 -98.52387619 571.85368562 C-99.75835266 570.08983655 -100.90129328 568.29404311 -102.02441406 566.45751953 C-102.64473511 565.44757935 -102.64473511 565.44757935 -103.27758789 564.41723633 C-110.84394519 551.83669492 -121.96191406 533.02267288 -121.96191406 518.08251953 C-129.38691406 520.55751953 -129.38691406 520.55751953 -136.96191406 523.08251953 C-134.45181339 543.42954774 -130.76247042 562.0827233 -123.54101562 581.30517578 C-122.96191406 583.08251953 -122.96191406 583.08251953 -122.96191406 585.08251953 C-153.98191406 585.08251953 -185.00191406 585.08251953 -216.96191406 585.08251953 C-216.96191406 402.59251953 -216.96191406 220.10251953 -216.96191406 32.08251953 C-185.78504912 26.68652368 -154.62218614 21.31612656 -123.39025879 16.26611328 C-119.77035279 15.6800914 -116.15090388 15.09127302 -112.53145218 14.50245285 C-95.40037779 11.71594922 -78.26573899 8.95330262 -61.11816406 6.27001953 C-59.8550238 6.0721283 -58.59188354 5.87423706 -57.29046631 5.67034912 C-38.15174832 2.69066265 -19.36881459 0.40341751 0 0 Z " fill="#FEFEFE" transform="translate(762.9619140625,187.91748046875)"/>
<path d="M0 0 C40.4 0 40.4 0 49 7 C53.91256313 11.95361518 56.27589609 16.69359054 56.5 23.6875 C56.36044418 30.35334249 54.45489222 35.03493608 50 40 C45.48361472 43.421504 40.43881078 45.46597645 35 47 C35.49628906 47.53367187 35.99257813 48.06734375 36.50390625 48.6171875 C40.96537913 53.51041582 44.89283423 58.51292229 48.5546875 64.03125 C49.85646435 66.11837621 49.85646435 66.11837621 52 67 C56.16735187 67.15725856 59.94441928 66.98317108 64 66 C66.42857143 74.42857143 66.42857143 74.42857143 65 79 C58.9110068 81.63307814 52.12610826 82.18192123 45.72265625 80.34765625 C35.82630693 75.92184168 30.62752949 65.06215405 25.12304688 56.29882812 C24.24036133 54.93467773 24.24036133 54.93467773 23.33984375 53.54296875 C22.81769287 52.71821045 22.29554199 51.89345215 21.75756836 51.04370117 C19.83189897 48.48635328 19.83189897 48.48635328 15 47 C15 57.89 15 68.78 15 80 C10.05 80 5.1 80 0 80 C0 53.6 0 27.2 0 0 Z " fill="#FAFCFB" transform="translate(453,827)"/>
<path d="M0 0 C43.76208178 0 43.76208178 0 54.46484375 7.36328125 C59.38584687 12.60984692 60.70602323 17.46336299 60.5625 24.4375 C60.54606445 25.56345581 60.54606445 25.56345581 60.52929688 26.7121582 C60.29947173 32.57206099 59.33206197 36.80331496 55 41 C45.80568582 49.21185722 37.08723731 50.16704237 25.125 50.0625 C21.78375 50.041875 18.4425 50.02125 15 50 C15 59.9 15 69.8 15 80 C10.05 80 5.1 80 0 80 C0 53.6 0 27.2 0 0 Z " fill="#FAFCFB" transform="translate(297,827)"/>
<path d="M0 0 C46.3415625 0 46.3415625 0 54.6328125 8.25 C59.17799135 14.06782893 60.70289856 19.96014475 60.375 27.296875 C59.36618493 34.56875028 56.19846834 39.95945915 50.421875 44.4921875 C39.1101281 51.53466218 26.82339213 50.33092625 14 50 C14 59.9 14 69.8 14 80 C9.38 80 4.76 80 0 80 C0 53.6 0 27.2 0 0 Z " fill="#FDFEFD" transform="translate(759,827)"/>
<path d="M0 0 C4.95 0 9.9 0 15 0 C15 10.89 15 21.78 15 33 C27.54 33 40.08 33 53 33 C53 22.11 53 11.22 53 0 C57.62 0 62.24 0 67 0 C67 26.4 67 52.8 67 80 C62.38 80 57.76 80 53 80 C53 68.78 53 57.56 53 46 C40.46 46 27.92 46 15 46 C15 57.22 15 68.44 15 80 C10.05 80 5.1 80 0 80 C0 53.6 0 27.2 0 0 Z " fill="#FCFDFD" transform="translate(1066,827)"/>
<path d="M0 0 C17.16 0 34.32 0 52 0 C52 4.29 52 8.58 52 13 C39.79 13 27.58 13 15 13 C15 19.6 15 26.2 15 33 C26.55 33 38.1 33 50 33 C50 37.29 50 41.58 50 46 C38.45 46 26.9 46 15 46 C15 52.93 15 59.86 15 67 C27.54 67 40.08 67 53 67 C53 71.29 53 75.58 53 80 C35.51 80 18.02 80 0 80 C0 53.6 0 27.2 0 0 Z " fill="#F9FCFA" transform="translate(1384,827)"/>
<path d="M0 0 C17.16 0 34.32 0 52 0 C52 4.29 52 8.58 52 13 C39.79 13 27.58 13 15 13 C15 19.6 15 26.2 15 33 C26.55 33 38.1 33 50 33 C50 37.29 50 41.58 50 46 C38.45 46 26.9 46 15 46 C15 52.93 15 59.86 15 67 C27.54 67 40.08 67 53 67 C53 71.29 53 75.58 53 80 C35.51 80 18.02 80 0 80 C0 53.6 0 27.2 0 0 Z " fill="#F9FCFA" transform="translate(609,827)"/>
<path d="M0 0 C17.16 0 34.32 0 52 0 C52 4.29 52 8.58 52 13 C39.79 13 27.58 13 15 13 C15 19.6 15 26.2 15 33 C26.55 33 38.1 33 50 33 C50 37.29 50 41.58 50 46 C38.45 46 26.9 46 15 46 C15 52.93 15 59.86 15 67 C27.54 67 40.08 67 53 67 C53 78 53 78 52 80 C34.84 80 17.68 80 0 80 C0 53.6 0 27.2 0 0 Z " fill="#F9FCFA" transform="translate(1235,827)"/>
<path d="M0 0 C4.89013281 3.94463935 7.85553876 7.61167695 8.69140625 13.953125 C8.84609375 15.7784375 8.84609375 15.7784375 9.00390625 17.640625 C4.46689131 19.09246978 0.82329149 19.87571696 -3.99609375 19.640625 C-4.61458333 17.91536458 -5.23307292 16.19010417 -5.8515625 14.46484375 C-7.49012644 11.85320771 -9.22023372 10.9441406 -11.99609375 9.640625 C-17.45007828 8.83558207 -22.37774276 8.68865383 -27.18359375 11.515625 C-30.14030033 14.98210858 -30.26726023 17.12118368 -29.99609375 21.640625 C-28.46487704 25.54228297 -26.47543986 26.86052883 -22.671875 28.640625 C-19.33869346 29.88631036 -15.94101901 30.76984096 -12.49609375 31.640625 C-3.03164742 34.05146788 3.22203252 36.5179927 9.00390625 44.640625 C11.44633061 49.52547372 10.73487951 56.90608045 9.35546875 62.06640625 C6.3515227 68.67765505 1.10647084 72.85777909 -5.30859375 76.015625 C-14.14388202 79.23583726 -25.84830548 79.23583726 -34.68359375 76.015625 C-41.8542415 72.4734978 -46.37111367 68.32754299 -49.3515625 60.83203125 C-50.17531633 58.03126822 -50.29319318 55.53734445 -49.99609375 52.640625 C-39.38895089 49.84440651 -39.38895089 49.84440651 -35.99609375 51.640625 C-35.14136028 53.58481149 -34.55477691 55.46914371 -34.0625 57.53515625 C-32.39429866 60.82878453 -30.22992564 61.94885184 -26.99609375 63.640625 C-23.28587487 64.23205804 -23.28587487 64.23205804 -19.43359375 64.078125 C-18.15355469 64.07683594 -16.87351562 64.07554687 -15.5546875 64.07421875 C-11.86116907 63.62418522 -9.93182528 62.87659184 -6.99609375 60.640625 C-5.4414907 57.53141891 -5.26888682 54.00979472 -5.99609375 50.640625 C-8.819646 47.88319809 -11.90374803 46.817621 -15.62109375 45.640625 C-16.68070313 45.29902344 -17.7403125 44.95742188 -18.83203125 44.60546875 C-20.78780966 44.00907706 -22.75047162 43.43419782 -24.72265625 42.89453125 C-32.56043191 40.74702925 -39.49164396 37.74379583 -43.99609375 30.640625 C-46.55520206 25.01058672 -46.92722584 19.31515971 -45.4140625 13.34375 C-42.5697779 5.81094147 -36.61512346 0.00319996 -29.30859375 -3.359375 C-19.95435031 -6.24048198 -8.19308456 -5.57963488 0 0 Z " fill="#FAFCFB" transform="translate(958.99609375,830.359375)"/>
<path d="M0 0 C21.78 0 43.56 0 66 0 C66 8 66 8 65 13 C56.75 13 48.5 13 40 13 C40 35.11 40 57.22 40 80 C35.05 80 30.1 80 25 80 C25 57.89 25 35.78 25 13 C16.75 13 8.5 13 0 13 C0 8.71 0 4.42 0 0 Z " fill="#FBFDFC" transform="translate(1525,827)"/>
<path d="M0 0 C22.6474443 -0.50327654 22.6474443 -0.50327654 29.5625 5.0625 C31.68845988 9.40685279 31.87222079 13.25966961 31 18 C29.31748465 21.50106385 27.03538249 23.53024313 23.46875 25.1484375 C18.80370299 26.29368553 14.40499177 26.21295621 9.625 26.125 C6.44875 26.08375 3.2725 26.0425 0 26 C0 17.42 0 8.84 0 0 Z " fill="#4FA675" transform="translate(773,839)"/>
<path d="M0 0 C3.34125 -0.061875 6.6825 -0.12375 10.125 -0.1875 C11.68758545 -0.22846802 11.68758545 -0.22846802 13.28173828 -0.27026367 C19.94116786 -0.32982579 24.26977763 0.55716946 29.375 5.125 C31.65409972 9.15725335 31.77481718 12.47091401 31 17 C28.90036931 21.53520229 26.7455525 23.53907863 22.12866211 25.41113281 C17.9970857 26.55408066 13.81392919 26.30593492 9.5625 26.1875 C4.8290625 26.0946875 4.8290625 26.0946875 0 26 C0 17.42 0 8.84 0 0 Z " fill="#50A775" transform="translate(312,839)"/>
<path d="M0 0 C17.45454545 -0.58181818 17.45454545 -0.58181818 24 4 C26.68773977 8.03160965 26.67415933 11.26423878 26 16 C23.63920232 20.1095367 21.468124 21.64875282 17 23 C14.05560339 23.23142 11.13851219 23.18881483 8.1875 23.125 C4.1346875 23.063125 4.1346875 23.063125 0 23 C0 15.41 0 7.82 0 0 Z " fill="#4FA675" transform="translate(468,839)"/>
</svg>
